<?xml version="1.0" encoding="UTF-8"?>
<svg id="uuid-d89a1a5f-391d-4c0c-bbd2-3d0070bbb439" data-name="Layer 1" xmlns="http://www.w3.org/2000/svg" width="261.36" height="243.15" xmlns:xlink="http://www.w3.org/1999/xlink" viewBox="0 0 261.36 243.15">
  <defs>
    <style>
      .uuid-17af14e9-f7c1-4f68-994b-486908d33722 {
        fill: #e5ac38;
      }

      .uuid-341fa5f3-2525-4702-8cde-29cfbc313bcd {
        fill: #975877;
      }

      .uuid-85b90484-02f4-4963-9085-8d6c9da4c94d {
        fill: #7d2ac6;
      }

      .uuid-c68c45f3-0743-4607-b4bc-78543a0d495c {
        fill: url(#uuid-0570e68b-fe4a-4e5c-9779-d86cff974ccf);
      }

      .uuid-bec9afec-e443-4c2b-85e9-4c3f325f4b46 {
        fill: url(#uuid-8297e3aa-ae87-43fa-8cde-2db6c33cd6e2);
      }

      .uuid-5a2a29d1-f3f6-4cb4-84d1-32a5df522117 {
        fill: url(#uuid-ee5c643b-5b25-4f5d-ac38-06dee9c37b86);
      }

      .uuid-32297a1a-288d-4dab-9859-19b7585e1532 {
        fill: url(#uuid-5f04a085-217d-49fc-b61f-42cc9e5a3db0);
      }

      .uuid-281f7a2a-5d66-4144-a6f3-087f9abb3f9e {
        fill: url(#uuid-7a0e9be8-40b4-46eb-81ff-128e2c7e41c5);
      }

      .uuid-dce1eae1-9fa7-45cd-909f-a9f4cc1cb418 {
        fill: url(#uuid-fe9d5358-95a0-4435-9bad-8e951fc64b83);
      }

      .uuid-98577f6d-aa35-412d-9c6f-e0f4b245f2ca {
        fill: url(#uuid-9ed7dcae-e498-45f7-b15d-781367646119);
      }
    </style>
    <linearGradient id="uuid-0570e68b-fe4a-4e5c-9779-d86cff974ccf" x1="210.74" y1="90.04" x2="200.89" y2="60.31" gradientUnits="userSpaceOnUse">
      <stop offset=".38" stop-color="#e5ac38"/>
      <stop offset=".63" stop-color="#bc796e"/>
      <stop offset="1" stop-color="#7d2ac6"/>
    </linearGradient>
    <linearGradient id="uuid-9ed7dcae-e498-45f7-b15d-781367646119" x1="120.46" y1="57.97" x2="177.25" y2="32.56" gradientUnits="userSpaceOnUse">
      <stop offset=".14" stop-color="#e5ac38"/>
      <stop offset=".58" stop-color="#7d2ac6"/>
    </linearGradient>
    <linearGradient id="uuid-ee5c643b-5b25-4f5d-ac38-06dee9c37b86" x1="109.43" y1="129.92" x2="146.56" y2="202.48" gradientUnits="userSpaceOnUse">
      <stop offset=".13" stop-color="#e5ac38"/>
      <stop offset=".75" stop-color="#e5ac38"/>
    </linearGradient>
    <linearGradient id="uuid-5f04a085-217d-49fc-b61f-42cc9e5a3db0" x1="193.88" y1="172.26" x2="162.33" y2="202.65" gradientUnits="userSpaceOnUse">
      <stop offset=".23" stop-color="#e5ac38"/>
      <stop offset=".75" stop-color="#e5ac38"/>
    </linearGradient>
    <linearGradient id="uuid-fe9d5358-95a0-4435-9bad-8e951fc64b83" x1="90.37" y1="194" x2="143.05" y2="218.24" gradientUnits="userSpaceOnUse">
      <stop offset=".21" stop-color="#975877"/>
      <stop offset=".6" stop-color="#e5ac38"/>
    </linearGradient>
    <linearGradient id="uuid-8297e3aa-ae87-43fa-8cde-2db6c33cd6e2" x1="69.65" y1="143.24" x2="80.37" y2="182.36" gradientUnits="userSpaceOnUse">
      <stop offset=".05" stop-color="#e5ac38"/>
      <stop offset=".7" stop-color="#975877"/>
    </linearGradient>
    <linearGradient id="uuid-7a0e9be8-40b4-46eb-81ff-128e2c7e41c5" x1="98.78" y1="192.04" x2="180.37" y2="33.69" gradientUnits="userSpaceOnUse">
      <stop offset=".03" stop-color="#975877"/>
      <stop offset=".22" stop-color="#925084"/>
      <stop offset=".56" stop-color="#873ca6"/>
      <stop offset=".83" stop-color="#7d2ac6"/>
    </linearGradient>
  </defs>
  <path class="uuid-17af14e9-f7c1-4f68-994b-486908d33722" d="m70.53,31.93c4.23,0,8.54.55,12.82,1.7,26.37,7.07,42.02,34.17,34.95,60.54-5.92,22.08-25.89,36.65-47.71,36.65-.12,0-.23,0-.35,0l-55.24-.18,13.47-23.34c-6.88-11.17-9.32-25.04-5.66-38.71,5.92-22.08,25.89-36.65,47.71-36.65m0-15c-29.09,0-54.67,19.64-62.2,47.76-3.76,14.01-2.6,28.94,3.07,42.16l-9.39,16.26c-2.68,4.63-2.68,10.34-.01,14.98,2.67,4.64,7.6,7.5,12.95,7.52l55.24.18h.4c29.09,0,54.67-19.64,62.2-47.76,9.19-34.32-11.24-69.71-45.56-78.91-5.47-1.46-11.09-2.21-16.71-2.21h0Z"/>
  <path class="uuid-17af14e9-f7c1-4f68-994b-486908d33722" d="m209.34,98.41c14.55,0,27.86,9.71,31.81,24.43,2.44,9.11.81,18.36-3.77,25.81l8.98,15.56-36.83.12c-.08,0-.16,0-.23,0-14.55,0-27.86-9.71-31.81-24.43-4.71-17.58,5.72-35.65,23.3-40.36,2.86-.77,5.73-1.13,8.55-1.13m0-15h0c-4.18,0-8.36.55-12.43,1.64-25.54,6.84-40.75,33.19-33.91,58.73,5.61,20.93,24.65,35.55,46.3,35.55h.28s0,0,0,0l36.83-.12c5.35-.02,10.29-2.88,12.95-7.52,2.67-4.64,2.66-10.35-.01-14.98l-5.05-8.75c3.39-9.23,3.91-19.4,1.34-29-5.61-20.93-24.65-35.55-46.3-35.55h0Z"/>
  <path class="uuid-c68c45f3-0743-4607-b4bc-78543a0d495c" d="m212.7,98.25l-7.98-.58c.93-12.71,1-44.01-18.37-60.11l5.11-6.15c9.2,7.65,24.19,26.5,21.24,66.84Z"/>
  <path class="uuid-98577f6d-aa35-412d-9c6f-e0f4b245f2ca" d="m119.15,63.04l-3.79-7.04c1.26-.68,31.31-16.79,59.78-25.9l2.44,7.62c-27.75,8.87-58.12,25.16-58.42,25.32Z"/>
  <path class="uuid-5a2a29d1-f3f6-4cb4-84d1-32a5df522117" d="m143.27,210.4c-34.22-59.33-36.6-84.75-36.68-85.8l7.97-.66c.02.24,2.57,25.12,35.64,82.46l-6.93,4Z"/>
  <path class="uuid-32297a1a-288d-4dab-9859-19b7585e1532" d="m155.41,216.15l-4.6-6.54c7.98-5.61,27.51-20.76,36.54-40.34l7.26,3.35c-9.85,21.34-30.7,37.55-39.21,43.53Z"/>
  <path class="uuid-dce1eae1-9fa7-45cd-909f-a9f4cc1cb418" d="m142.33,219.07c-28.03-4.04-47.65-15.75-56.84-22.38l4.68-6.49c6.93,4.99,25.98,17.02,53.31,20.95l-1.14,7.92Z"/>
  <path class="uuid-bec9afec-e443-4c2b-85e9-4c3f325f4b46" d="m77.49,186.9c-3.39-7.24-9.26-22.63-10.53-44.27l7.99-.47c1.2,20.31,6.65,34.62,9.79,41.35l-7.25,3.39Z"/>
  <path class="uuid-281f7a2a-5d66-4144-a6f3-087f9abb3f9e" d="m85.76,193.8l-3.95-6.96c.19-.11,19.2-11.06,40.78-35.7,19.89-22.71,46.12-62.04,58.08-120.47l7.84,1.6c-12.35,60.32-39.53,100.96-60.15,124.43-22.44,25.54-41.78,36.64-42.6,37.1Z"/>
  <circle class="uuid-85b90484-02f4-4963-9085-8d6c9da4c94d" cx="184.6" cy="31.48" r="31.47"/>
  <circle class="uuid-341fa5f3-2525-4702-8cde-29cfbc313bcd" cx="83.79" cy="190.32" r="18.89"/>
  <circle class="uuid-17af14e9-f7c1-4f68-994b-486908d33722" cx="148.72" cy="215.81" r="27.33"/>
</svg>